{"asset":{"version":"2.0","generator":"Blockbench 4.12.4 glTF exporter"},"scenes":[{"nodes":[17],"name":"blockbench_export"}],"scene":0,"nodes":[{"name":"armorHead"},{"translation":[0,1.561875,0.070535625],"name":"bipedHead","children":[0]},{"rotation":[0.2111786229883144,-0.13300578994902001,0.002903546589493905,0.9683514953001306],"translation":[-0.28125,0.5625,0.625],"name":"tr","mesh":0},{"translation":[-0.09375,-0.3743749999999999,0.179464375],"name":"tr","children":[2]},{"rotation":[-0.2111786229883144,0.13300578994902001,0.002903546589493905,0.9683514953001306],"translation":[-0.28125,0.5625,-0.625],"name":"tl","mesh":1},{"translation":[-0.09375,-0.3743749999999999,-0.195535625],"name":"tl","children":[4]},{"rotation":[-0.0922959556412572,0.7010573846499779,-0.09229595564125725,0.7010573846499779],"translation":[0,-0.0625,-0.0625],"name":"anglewing","children":[3,5]},{"name":"armorBody","children":[6]},{"translation":[0,1.561875,0.070535625],"name":"bipedBody","children":[7]},{"name":"armorRightArm"},{"translation":[-0.205,1.459375,0.070535625],"name":"bipedRightArm","children":[9]},{"name":"armorLeftLeg"},{"name":"armorLeftBoot"},{"translation":[0.1025,0.946875,0.070535625],"name":"bipedLeftLeg","children":[11,12]},{"name":"armorRightLeg"},{"name":"armorRightBoot"},{"translation":[-0.1025,0.946875,0.070535625],"name":"bipedRightLeg","children":[14,15]},{"children":[1,8,10,13,16]}],"bufferViews":[{"buffer":0,"byteOffset":0,"byteLength":288,"target":34962,"byteStride":12},{"buffer":0,"byteOffset":288,"byteLength":288,"target":34962,"byteStride":12},{"buffer":0,"byteOffset":576,"byteLength":192,"target":34962,"byteStride":8},{"buffer":0,"byteOffset":768,"byteLength":72,"target":34963},{"buffer":0,"byteOffset":840,"byteLength":288,"target":34962,"byteStride":12},{"buffer":0,"byteOffset":1128,"byteLength":288,"target":34962,"byteStride":12},{"buffer":0,"byteOffset":1416,"byteLength":192,"target":34962,"byteStride":8},{"buffer":0,"byteOffset":1608,"byteLength":72,"target":34963},{"buffer":0,"byteOffset":1680,"byteLength":4},{"buffer":0,"byteOffset":1684,"byteLength":16},{"buffer":0,"byteOffset":1700,"byteLength":4},{"buffer":0,"byteOffset":1704,"byteLength":16}],"buffers":[{"byteLength":1720,"uri":"data:application/octet-stream;base64,"}],"accessors":[{"bufferView":0,"componentType":5126,"count":24,"max":[0.12165375053882599,0.6022174954414368,0.6266649961471558],"min":[0.1215912476181984,-1.0227824449539185,-0.5608350038528442],"type":"VEC3"},{"bufferView":1,"componentType":5126,"count":24,"max":[1,1,1],"min":[-1,-1,-1],"type":"VEC3"},{"bufferView":2,"componentType":5126,"count":24,"max":[1,0.4189453125],"min":[0,0.3749999701976776],"type":"VEC2"},{"bufferView":3,"componentType":5123,"count":36,"max":[23],"min":[0],"type":"SCALAR"},{"bufferView":4,"componentType":5126,"count":24,"max":[0.12165375053882599,0.6022174954414368,0.5608350038528442],"min":[0.1215912476181984,-1.0227824449539185,-0.6266649961471558],"type":"VEC3"},{"bufferView":5,"componentType":5126,"count":24,"max":[1,1,1],"min":[-1,-1,-1],"type":"VEC3"},{"bufferView":6,"componentType":5126,"count":24,"max":[1,0.4296875],"min":[0,0.3749999701976776],"type":"VEC2"},{"bufferView":7,"componentType":5123,"count":36,"max":[23],"min":[0],"type":"SCALAR"},{"bufferView":8,"componentType":5126,"count":1,"max":[0],"min":[0],"type":"SCALAR"},{"bufferView":9,"componentType":5126,"count":1,"max":[0,-0.06540312618017197,0,0.9978589415550232],"min":[0,-0.06540312618017197,0,0.9978589415550232],"type":"VEC4"},{"bufferView":10,"componentType":5126,"count":1,"max":[0],"min":[0],"type":"SCALAR"},{"bufferView":11,"componentType":5126,"count":1,"max":[0,0.06540312618017197,0,0.9978589415550232],"min":[0,0.06540312618017197,0,0.9978589415550232],"type":"VEC4"}],"materials":[{"pbrMetallicRoughness":{"metallicFactor":0,"roughnessFactor":1,"baseColorTexture":{"index":0}},"alphaMode":"MASK","alphaCutoff":0.05,"doubleSided":true}],"textures":[{"sampler":0,"source":0}],"samplers":[{"magFilter":9728,"minFilter":9728,"wrapS":33071,"wrapT":33071}],"images":[{"mimeType":"image/png","uri":"data:image/png;base64,"}],"meshes":[{"primitives":[{"mode":4,"attributes":{"POSITION":0,"NORMAL":1,"TEXCOORD_0":2},"indices":3,"material":0}]},{"primitives":[{"mode":4,"attributes":{"POSITION":4,"NORMAL":5,"TEXCOORD_0":6},"indices":7,"material":0}]}],"animations":[{"name":"nrc.idle","samplers":[{"input":8,"output":9,"interpolation":"LINEAR"},{"input":10,"output":11,"interpolation":"LINEAR"}],"channels":[{"sampler":0,"target":{"node":5,"path":"rotation"}},{"sampler":1,"target":{"node":3,"path":"rotation"}}]}]}